<svg width="24" height="40" viewBox="0 0 24 40" fill="none" xmlns="http://www.w3.org/2000/svg">
<path d="M23.3332 6.66663H0.000305176V33.333H23.3339L23.3332 6.66663ZM14.9332 22.8288C14.8414 23.0405 14.6698 23.2054 14.4532 23.2838C14.2364 23.3623 14.0015 23.3505 13.7934 23.2473L11.1184 21.9089L4.86008 31.2974C4.69965 31.5338 4.43653 31.6671 4.16645 31.6671C4.04312 31.6671 3.91812 31.6387 3.79982 31.582C3.42482 31.3987 3.24318 30.9654 3.37488 30.5703L8.37488 15.5703C8.4516 15.3421 8.6232 15.1571 8.84642 15.0636C9.0713 14.9702 9.3213 14.9802 9.5381 15.0887L11.8947 16.2687L13.3481 9.00516C13.3947 8.77023 13.5398 8.5685 13.7465 8.44852C13.9516 8.32854 14.1983 8.30009 14.4282 8.37849L19.4282 10.0451C19.6497 10.1184 19.8283 10.2817 19.9248 10.4951C20.0214 10.7069 20.023 10.9502 19.9315 11.1634L14.9332 22.8288Z" fill="#989998"/>
<path d="M0.000305176 35V35.8334C0.000305176 37.375 0.958448 38.3334 2.5003 38.3334C3.11526 38.3334 3.33345 38.5516 3.33345 39.1666C3.33345 39.6267 3.70678 40 4.16688 40H19.1669C19.627 40 20.0003 39.6267 20.0003 39.1666C20.0003 38.5516 20.2188 38.3331 20.8337 38.3331C22.3753 38.3331 23.3337 37.3747 23.3337 35.8331L23.3335 35H0.000305176Z" fill="#989998"/>
<path d="M13.3167 17.6635C13.2667 17.9186 13.0982 18.1351 12.8649 18.2486C12.6317 18.3619 12.3582 18.3619 12.1267 18.2453L9.65344 17.0087L6.92523 25.1937L10.1404 20.3704C10.3736 20.0188 10.8337 19.9005 11.2071 20.0872L13.7487 21.3589L18.0436 11.3375L14.7986 10.2557L13.3167 17.6635Z" fill="#989998"/>
<path d="M23.3331 5V4.16657C23.3331 2.625 22.375 1.66657 20.8331 1.66657C20.2182 1.66657 20 1.44838 20 0.833429C20 0.373329 19.6267 0 19.1666 0H4.16657C3.70647 0 3.33314 0.373329 3.33314 0.833429C3.33314 1.44839 3.11495 1.66657 2.5 1.66657C0.958143 1.66657 0 2.625 0 4.16657V5H23.3331Z" fill="#989998"/>
</svg>