<svg width="24" height="40" viewBox="0 0 24 40" fill="none" xmlns="http://www.w3.org/2000/svg">
<path d="M0.0006379 6.6665H23.3335V33.3329H-7.7083e-05L0.0006379 6.6665ZM8.40064 22.8286C8.49244 23.0404 8.66403 23.2053 8.88055 23.2837C9.09735 23.3621 9.33228 23.3504 9.54043 23.2472L12.2154 21.9087L18.4737 31.2973C18.6342 31.5336 18.8973 31.667 19.1674 31.667C19.2907 31.667 19.4157 31.6386 19.534 31.5819C19.909 31.3986 20.0906 30.9653 19.9589 30.5702L14.9589 15.5702C14.8822 15.342 14.7106 15.157 14.4874 15.0635C14.2625 14.97 14.0125 14.9801 13.7957 15.0886L11.4391 16.2686L9.9857 9.00504C9.9391 8.77011 9.79401 8.56838 9.58726 8.4484C9.38218 8.32842 9.13553 8.29996 8.90562 8.37837L3.90562 10.0449C3.68408 10.1183 3.5055 10.2815 3.40897 10.495C3.31242 10.7068 3.31075 10.9501 3.40227 11.1632L8.40064 22.8286Z" fill="#989998"/>
<path d="M23.3335 35V35.8334C23.3335 37.375 22.3754 38.3334 20.8335 38.3334C20.2185 38.3334 20.0004 38.5516 20.0004 39.1666C20.0004 39.6267 19.627 40 19.1669 40H4.16693C3.70683 40 3.3335 39.6267 3.3335 39.1666C3.3335 38.5516 3.11503 38.3331 2.50007 38.3331C0.958498 38.3331 6.92195e-05 37.3747 6.92195e-05 35.8331L0.000348237 35H23.3335Z" fill="#989998"/>
<path d="M10.0172 17.6637C10.0672 17.9187 10.2357 18.1352 10.469 18.2488C10.7022 18.362 10.9757 18.362 11.2073 18.2454L13.6805 17.0088L17.5 27L13.1935 20.3705C12.9603 20.0189 12.5002 19.9006 12.1268 20.0873L9.58526 21.3591L5.29034 11.3376L8.53534 10.2559L10.0172 17.6637Z" fill="#989998"/>
<path d="M0.000845238 5V4.16657C0.000845238 2.625 0.958988 1.66657 2.50084 1.66657C3.1158 1.66657 3.33399 1.44838 3.33399 0.833429C3.33399 0.373329 3.70732 0 4.16742 0H19.1674C19.6275 0 20.0008 0.373329 20.0008 0.833429C20.0008 1.44839 20.219 1.66657 20.834 1.66657C22.3758 1.66657 23.334 2.625 23.334 4.16657V5H0.000845238Z" fill="#989998"/>
</svg>
