<svg width="32" height="40" viewBox="0 0 32 40" fill="none" xmlns="http://www.w3.org/2000/svg">
<path d="M31.7647 16.045C31.7647 7.19747 24.6398 0 15.8824 0C7.12454 0 0 7.19747 0 16.045C0 24.0482 5.8296 30.7001 13.4244 31.897V36.6045C8.69573 36.8366 5.17424 37.7188 5.17424 38.7712V40H26.5912V38.7712C26.5912 37.7188 23.0703 36.836 18.3396 36.6045L18.3395 31.8974C25.9346 30.7011 31.7647 24.0482 31.7647 16.045ZM1.44261 16.045C1.44261 8.00061 7.9206 1.45709 15.8824 1.45709C23.8452 1.45709 30.3221 8.00098 30.3221 16.045C30.3221 24.0887 23.8448 30.6329 15.8824 30.6329C7.9206 30.6334 1.44261 24.0887 1.44261 16.045ZM12.2598 4.54161C14.2942 1.29764 17.279 1.66325 19.0424 2.48543C20.8061 3.30802 22.9308 6.50634 21.1231 8.33419C19.641 9.83106 17.9488 10.1348 17.3849 11.9038C16.9154 11.7288 16.4102 11.6295 15.8811 11.6295C15.1484 11.6295 14.4595 11.8143 13.8521 12.1372C13.7251 12.0121 13.5712 11.8838 13.3787 11.755C11.5809 10.5596 10.9044 6.70237 12.2598 4.54161ZM4.49499 19.7044C1.28406 17.6482 1.64639 14.6325 2.45976 12.851C3.27397 11.0695 6.43971 8.9214 8.24932 10.7493C9.73139 12.247 10.0316 13.9569 11.7826 14.5271C11.6098 15.001 11.5106 15.5114 11.5106 16.0453C11.5106 16.7851 11.694 17.482 12.0136 18.0948C11.8902 18.2231 11.7627 18.3785 11.6349 18.5735C10.452 20.3889 6.63375 21.0734 4.49499 19.7044ZM19.5041 27.5477C17.4689 30.7922 14.4846 30.426 12.7205 29.6038C10.9572 28.7808 8.83092 25.5837 10.6398 23.7558C12.1222 22.2585 13.8147 21.9548 14.3791 20.1862C14.8482 20.3612 15.3533 20.4597 15.8818 20.4597C16.6149 20.4597 17.3043 20.2757 17.9105 19.9528C18.0379 20.0779 18.1926 20.2067 18.3847 20.335C20.1825 21.5308 20.8588 25.3877 19.5041 27.5477ZM27.2675 12.3852C30.4784 14.4414 30.117 17.4564 29.3027 19.239C28.4885 21.02 25.3235 23.1671 23.5132 21.3407C22.0316 19.8426 21.7318 18.1331 19.9808 17.5637C20.1536 17.0893 20.2523 16.579 20.2523 16.0449C20.2523 15.3047 20.0689 14.6086 19.7489 13.995C19.8732 13.8667 19.9998 13.7112 20.1272 13.5163C21.3105 11.7006 25.1299 11.0162 27.2675 12.3852ZM18.9513 16.0444C18.9513 17.7573 17.5777 19.1455 15.8814 19.1455C14.1873 19.1455 12.8128 17.7573 12.8128 16.0444C12.8128 14.332 14.1873 12.9443 15.8814 12.9443C17.5777 12.9438 18.9513 14.332 18.9513 16.0444Z" fill="#989998"/>
</svg>
