<svg width="32" height="54" viewBox="0 0 32 54" fill="none" xmlns="http://www.w3.org/2000/svg">
<path d="M31.5517 9.38184H0.885742V44.7337H31.5526L31.5517 9.38184ZM20.5117 30.8081C20.391 31.0889 20.1655 31.3075 19.881 31.4114C19.596 31.5154 19.2873 31.4998 19.0137 31.363L15.4981 29.5886L7.27285 42.0351C7.06199 42.3484 6.71619 42.5252 6.36122 42.5252C6.19913 42.5252 6.03485 42.4875 5.87937 42.4124C5.38651 42.1694 5.14778 41.5949 5.32087 41.0712L11.8923 21.1855C11.9931 20.883 12.2186 20.6377 12.512 20.5138C12.8076 20.3899 13.1361 20.4032 13.4211 20.5471L16.5183 22.1114L18.4285 12.4821C18.4897 12.1706 18.6804 11.9032 18.9521 11.7441C19.2217 11.5851 19.5458 11.5473 19.848 11.6513L26.4194 13.8607C26.7106 13.9579 26.9453 14.1743 27.0722 14.4573C27.199 14.738 27.2012 15.0606 27.081 15.3432L20.5117 30.8081Z" fill="#989998"/>
<path d="M0.885742 46.9438V48.0487C0.885742 50.0924 2.14501 51.363 4.17144 51.363C4.97967 51.363 5.26642 51.6523 5.26642 52.4675C5.26642 53.0775 5.75708 53.5724 6.36178 53.5724H26.076C26.6807 53.5724 27.1713 53.0775 27.1713 52.4675C27.1713 51.6522 27.4585 51.3626 28.2667 51.3626C30.2928 51.3626 31.5524 50.092 31.5524 48.0484L31.552 46.9438H0.885742Z" fill="#989998"/>
<path d="M18.3876 23.9607C18.3219 24.2988 18.1004 24.5859 17.7939 24.7364C17.4873 24.8866 17.1279 24.8866 16.8236 24.732L13.5731 23.0926L9.98743 33.9435L14.213 27.5492C14.5196 27.0831 15.1243 26.9263 15.615 27.1737L18.9553 28.8598L24.6001 15.5743L20.3352 14.1401L18.3876 23.9607Z" fill="#989998"/>
<path d="M31.5516 7.17249V6.0676C31.5516 4.02393 30.2923 2.75333 28.2659 2.75333C27.4577 2.75333 27.1709 2.46407 27.1709 1.64883C27.1709 1.03887 26.6803 0.543945 26.0756 0.543945H6.36136C5.75666 0.543945 5.266 1.03887 5.266 1.64883C5.266 2.46408 4.97923 2.75333 4.17101 2.75333C2.14458 2.75333 0.885315 4.02393 0.885315 6.0676V7.17249H31.5516Z" fill="#989998"/>
</svg>
