<svg width="37" height="54" viewBox="0 0 37 54" fill="none" xmlns="http://www.w3.org/2000/svg">
<path d="M22.9051 32.5757C23.1303 32.0065 23.2575 31.3884 23.2575 30.7395C23.2575 27.9978 21.047 25.7681 18.3289 25.7681C15.6109 25.7681 13.4003 27.9978 13.4003 30.7395C13.4003 31.3883 13.5276 32.0064 13.7527 32.5757C11.6595 33.1498 10.1146 35.0781 10.1146 37.3681C10.1146 38.0169 10.2418 38.635 10.467 39.2043C8.37381 39.7784 6.82886 41.7067 6.82886 43.9967C6.82886 46.7384 9.0394 48.9682 11.7575 48.9682C13.0208 48.9682 14.17 48.4825 15.0432 47.6913C15.9163 48.4825 17.0656 48.9682 18.3289 48.9682C19.5922 48.9682 20.7415 48.4825 21.6146 47.6913C22.4878 48.4825 23.6371 48.9682 24.9004 48.9682C27.6184 48.9682 29.829 46.7384 29.829 43.9967C29.829 41.7066 28.284 39.7784 26.1908 39.2043C26.416 38.6351 26.5432 38.017 26.5432 37.3681C26.5432 35.078 24.9983 33.1498 22.9051 32.5757H22.9051ZM21.6147 39.0253C20.7085 39.0253 19.9718 38.2821 19.9718 37.3681C19.9718 36.4541 20.7085 35.711 21.6147 35.711C22.5208 35.711 23.2575 36.4541 23.2575 37.3681C23.2575 38.2821 22.5208 39.0253 21.6147 39.0253ZM18.3289 29.0824C19.2351 29.0824 19.9718 29.8255 19.9718 30.7395C19.9718 31.6535 19.2351 32.3967 18.3289 32.3967C17.4228 32.3967 16.6861 31.6535 16.6861 30.7395C16.6861 29.8255 17.4228 29.0824 18.3289 29.0824ZM15.0432 35.711C15.9493 35.711 16.6861 36.4541 16.6861 37.3681C16.6861 38.2821 15.9493 39.0253 15.0432 39.0253C14.1371 39.0253 13.4003 38.2821 13.4003 37.3681C13.4003 36.4541 14.1371 35.711 15.0432 35.711ZM11.7575 45.6539C10.8513 45.6539 10.1146 44.9107 10.1146 43.9967C10.1146 43.0827 10.8513 42.3396 11.7575 42.3396C12.6636 42.3396 13.4003 43.0827 13.4003 43.9967C13.4003 44.9107 12.6636 45.6539 11.7575 45.6539ZM18.3289 45.6539C17.4228 45.6539 16.6861 44.9107 16.6861 43.9967C16.6861 43.0827 17.4228 42.3396 18.3289 42.3396C19.2351 42.3396 19.9718 43.0827 19.9718 43.9967C19.9718 44.9107 19.2351 45.6539 18.3289 45.6539ZM24.9004 45.6539C23.9943 45.6539 23.2575 44.9107 23.2575 43.9967C23.2575 43.0827 23.9943 42.3396 24.9004 42.3396C25.8065 42.3396 26.5433 43.0827 26.5433 43.9967C26.5433 44.9107 25.8065 45.6539 24.9004 45.6539Z" fill="#989998"/>
<path d="M31.4713 15.8255V12.5112C32.3782 12.5112 33.1142 11.7688 33.1142 10.854C33.1142 9.93927 32.3782 9.19689 31.4713 9.19689V7.53973C31.4713 4.79805 29.2608 2.56828 26.5427 2.56828H19.9713C19.9713 1.65352 19.2353 0.911133 18.3284 0.911133C17.4215 0.911133 16.6855 1.65352 16.6855 2.56828H10.1141C7.39604 2.56828 5.18549 4.79805 5.18549 7.53973V9.19689C4.27861 9.19689 3.54263 9.93927 3.54263 10.854C3.54263 11.7688 4.27861 12.5112 5.18549 12.5112V15.8255C2.35413 16.5638 0.256897 19.1613 0.256897 22.2443V47.3109C0.256897 50.9659 3.20485 53.9395 6.82836 53.9395H29.8285C33.452 53.9395 36.3999 50.9659 36.3999 47.3109V22.2443C36.3999 19.1612 34.3027 16.5638 31.4713 15.8255V15.8255ZM33.1142 47.3113C33.1142 49.139 31.6404 50.6256 29.8285 50.6256H6.82836C5.01642 50.6256 3.54263 49.139 3.54263 47.3113V22.2448C3.54263 20.4171 5.01642 18.9305 6.82836 18.9305C7.73524 18.9305 8.47122 18.1881 8.47122 17.2734V12.5117H28.1856V17.2734C28.1856 18.1881 28.9216 18.9305 29.8285 18.9305C31.6404 18.9305 33.1142 20.4171 33.1142 22.2448V47.3113Z" fill="#989998"/>
</svg>
