<svg width="46" height="54" viewBox="0 0 46 54" fill="none" xmlns="http://www.w3.org/2000/svg">
<path d="M23.0006 0.581787C22.3955 0.581787 21.9055 1.07652 21.9055 1.68645V6.1056C21.9055 6.71594 22.3959 7.21027 23.0006 7.21027C23.6057 7.21027 24.0958 6.71553 24.0958 6.1056V1.68645C24.0958 1.07612 23.6053 0.581787 23.0006 0.581787V0.581787ZM7.51276 7.05501C7.23238 7.05501 6.95658 7.16713 6.74267 7.38291C6.31484 7.81446 6.31484 8.50493 6.74267 8.93648L9.84024 12.061C10.2677 12.4925 10.9526 12.4925 11.3804 12.061C11.8082 11.6294 11.8082 10.939 11.3804 10.5074L8.28285 7.38291C8.06893 7.16713 7.79314 7.05501 7.51276 7.05501ZM38.4875 7.05501C38.2071 7.05501 37.9313 7.16713 37.7174 7.38291L34.6198 10.5074C34.192 10.939 34.192 11.6294 34.6198 12.061C35.0477 12.4925 35.7322 12.4925 36.16 12.061L39.2576 8.93648C39.6854 8.50493 39.6854 7.81446 39.2576 7.38291C39.0437 7.16713 38.7679 7.05501 38.4875 7.05501ZM22.9996 10.5244C16.3213 10.5244 9.85677 15.7507 9.85677 23.1433C9.85677 32.7348 16.9759 34.7433 16.9759 41.4587H29.0236C29.0236 34.7439 36.1427 32.7352 36.1427 23.1433C36.1427 15.7512 29.6784 10.5244 22.9998 10.5244H22.9996ZM19.6282 13.8731H19.6453C19.674 13.8719 19.7023 13.8719 19.7309 13.8731C20.26 13.8758 20.7118 14.2595 20.8043 14.7851C20.8968 15.3107 20.6034 15.8277 20.1076 16.0135C17.439 17.0284 15.4336 19.4119 14.9225 22.3141H14.9221C14.8137 22.9148 14.2426 23.3128 13.6471 23.2034C13.0519 23.0935 12.6573 22.5179 12.7658 21.9172C13.4129 18.2433 15.9352 15.2471 19.3199 13.9594H19.3203C19.4181 13.9154 19.522 13.8865 19.6282 13.873L19.6282 13.8731ZM1.09514 22.6767C0.490071 22.6767 0 23.1714 0 23.7813C0 24.3917 0.490472 24.886 1.09514 24.886H5.4762C6.08127 24.886 6.57134 24.3913 6.57134 23.7813C6.57134 23.171 6.08087 22.6767 5.4762 22.6767H1.09514ZM40.5238 22.6767C39.9187 22.6767 39.4286 23.1714 39.4286 23.7813C39.4286 24.3917 39.9191 24.886 40.5238 24.886H44.9048C45.5099 24.886 46 24.3913 46 23.7813C46 23.171 45.5095 22.6767 44.9048 22.6767H40.5238ZM16.9761 43.6672V45.8765H29.0237V43.6672H16.9761ZM16.9761 48.0863C16.9761 49.3559 18.0109 50.2956 19.1664 50.2956H26.8329C27.9887 50.2956 29.0232 49.3555 29.0232 48.0863H16.9755H16.9761ZM20.8094 51.4008C20.8094 52.6249 21.7865 53.6101 22.9996 53.6101C24.2132 53.6101 25.1899 52.6245 25.1899 51.4008H20.8089H20.8094Z" fill="#989998"/>
</svg>
