<svg width="39" height="40" viewBox="0 0 39 40" fill="none" xmlns="http://www.w3.org/2000/svg">
<path d="M38.6596 17.6052L21.74 0.93C20.4824 -0.31 18.4555 -0.31 17.1979 0.93L0.278378 17.6052C-0.312848 18.1873 0.100686 19.1874 0.927167 19.1874H5.1183V37.6001C5.1183 38.9244 6.19386 40 7.51815 40H14.3447V26.8714C14.3447 25.5471 15.4202 24.4716 16.749 24.4716H22.1887C23.5177 24.4716 24.593 25.5471 24.593 26.8714L24.5932 40H31.4198C32.7441 40 33.8196 38.9244 33.8196 37.6001V19.1874H38.0108C38.8372 19.1874 39.2508 18.1873 38.6596 17.6052H38.6596Z" fill="#989998"/>
</svg>
