<svg width="35" height="40" viewBox="0 0 35 40" fill="none" xmlns="http://www.w3.org/2000/svg">
<path d="M17.5005 0C17.0402 0 16.6673 0.373187 16.6673 0.833264V4.16669C16.6673 4.62707 17.0405 4.99995 17.5005 4.99995C17.9609 4.99995 18.3338 4.62677 18.3338 4.16669V0.833264C18.3338 0.372882 17.9606 0 17.5005 0ZM5.71625 4.88284C5.50292 4.88284 5.29307 4.96742 5.13031 5.13018C4.80479 5.4557 4.80479 5.97654 5.13031 6.30206L7.48717 8.65892C7.8124 8.98444 8.33353 8.98444 8.65905 8.65892C8.98457 8.3334 8.98457 7.81256 8.65905 7.48704L6.30219 5.13018C6.13943 4.96742 5.92959 4.88284 5.71625 4.88284ZM29.2841 4.88284C29.0708 4.88284 28.8609 4.96742 28.6982 5.13018L26.3413 7.48704C26.0158 7.81256 26.0158 8.3334 26.3413 8.65892C26.6668 8.98444 27.1877 8.98444 27.5132 8.65892L29.87 6.30206C30.1956 5.97654 30.1956 5.4557 29.87 5.13018C29.7073 4.96742 29.4974 4.88284 29.2841 4.88284ZM17.4998 7.49982C12.4184 7.49982 7.49974 11.4421 7.49974 17.0185C7.49974 24.2535 12.9165 25.7685 12.9165 30.834H22.0832C22.0832 25.769 27.5 24.2538 27.5 17.0185C27.5 11.4425 22.5815 7.49982 17.4999 7.49982H17.4998ZM14.9345 10.0258H14.9476C14.9694 10.0249 14.9909 10.0249 15.0127 10.0258C15.4153 10.0278 15.7591 10.3173 15.8295 10.7138C15.8998 11.1102 15.6766 11.5002 15.2993 11.6403C13.2689 12.4059 11.743 14.2038 11.3541 16.393H11.3538C11.2713 16.8461 10.8368 17.1463 10.3837 17.0638C9.93086 16.9809 9.63063 16.5467 9.71316 16.0936C10.2055 13.3223 12.1246 11.0622 14.7 10.0909H14.7003C14.7747 10.0577 14.8538 10.036 14.9346 10.0258L14.9345 10.0258ZM0.833263 16.6665C0.372881 16.6665 0 17.0396 0 17.4997C0 17.9601 0.373186 18.333 0.833263 18.333H4.16669C4.62707 18.333 4.99995 17.9598 4.99995 17.4997C4.99995 17.0393 4.62677 16.6665 4.16669 16.6665H0.833263ZM30.8334 16.6665C30.373 16.6665 30.0002 17.0396 30.0002 17.4997C30.0002 17.9601 30.3734 18.333 30.8334 18.333H34.1669C34.6272 18.333 35.0001 17.9598 35.0001 17.4997C35.0001 17.0393 34.6269 16.6665 34.1669 16.6665H30.8334ZM12.9167 32.4999V34.1664H22.0834V32.4999H12.9167ZM12.9167 35.8333C12.9167 36.791 13.704 37.4998 14.5832 37.4998H20.4164C21.2959 37.4998 22.0829 36.7907 22.0829 35.8333H12.9162H12.9167ZM15.8333 38.3335C15.8333 39.2568 16.5767 40 17.4998 40C18.4232 40 19.1663 39.2565 19.1663 38.3335H15.8329H15.8333Z" fill="#989998"/>
</svg>
