<svg width="27" height="40" viewBox="0 0 27 40" fill="none" xmlns="http://www.w3.org/2000/svg">
<path d="M22.2849 22.6879V11.7482C22.2849 9.23518 21.2669 6.95033 19.6268 5.29358C17.986 3.6362 15.7235 2.60691 13.236 2.60691C10.7482 2.60691 8.48508 3.6362 6.84528 5.29358C5.20454 6.95033 4.18653 9.2355 4.18653 11.7482V22.6879H22.2855H22.2849ZM1.60494 22.6879V11.7482C1.60494 8.5178 2.91388 5.57914 5.02108 3.45056C7.12829 1.32199 10.0369 0 13.2354 0C16.4346 0 19.3431 1.32191 21.4505 3.45056C23.5577 5.57914 24.8664 8.51787 24.8664 11.7482V22.6879H25.3191C25.9553 22.6879 26.4706 23.209 26.4706 23.8511V38.8368C26.4706 39.4789 25.955 40 25.3191 40H1.1515C0.515894 40 0 39.4789 0 38.8368V23.8511C0 23.209 0.51591 22.6879 1.1515 22.6879H1.60494ZM14.0014 31.2824C14.6324 30.9885 15.0704 30.3449 15.0704 29.5968C15.0704 28.5725 14.2481 27.7426 13.2345 27.7426C12.2204 27.7426 11.3989 28.5725 11.3989 29.5968C11.3989 30.3449 11.8365 30.9885 12.4672 31.2817V34.2719C12.4672 35.1713 14.0011 35.1713 14.0011 34.2719V31.2824H14.0014Z" fill="#989998"/>
</svg>
