<svg width="32" height="46" viewBox="0 0 32 46" fill="none" xmlns="http://www.w3.org/2000/svg">
<path d="M19.817 27.468C20.014 26.9742 20.1253 26.438 20.1253 25.8752C20.1253 23.4969 18.1911 21.5626 15.8128 21.5626C13.4345 21.5626 11.5003 23.4969 11.5003 25.8752C11.5003 26.438 11.6116 26.9742 11.8086 27.468C9.97706 27.966 8.62522 29.6387 8.62522 31.6252C8.62522 32.188 8.73656 32.7242 8.93358 33.2181C7.10202 33.7161 5.75018 35.3888 5.75018 37.3753C5.75018 39.7536 7.68442 41.6878 10.0627 41.6878C11.1681 41.6878 12.1737 41.2665 12.9377 40.5802C13.7017 41.2665 14.7074 41.6878 15.8128 41.6878C16.9182 41.6878 17.9238 41.2665 18.6878 40.5802C19.4518 41.2665 20.4574 41.6878 21.5628 41.6878C23.9411 41.6878 25.8754 39.7536 25.8754 37.3753C25.8754 35.3887 24.5235 33.716 22.692 33.2181C22.889 32.7242 23.0003 32.1881 23.0003 31.6252C23.0003 29.6387 21.6485 27.966 19.8169 27.468H19.817ZM18.6878 33.0627C17.8949 33.0627 17.2503 32.4181 17.2503 31.6252C17.2503 30.8323 17.8949 30.1877 18.6878 30.1877C19.4807 30.1877 20.1253 30.8323 20.1253 31.6252C20.1253 32.4181 19.4807 33.0627 18.6878 33.0627ZM15.8128 24.4376C16.6057 24.4376 17.2503 25.0823 17.2503 25.8752C17.2503 26.668 16.6057 27.3127 15.8128 27.3127C15.0199 27.3127 14.3753 26.668 14.3753 25.8752C14.3753 25.0823 15.0199 24.4376 15.8128 24.4376ZM12.9378 30.1877C13.7306 30.1877 14.3753 30.8323 14.3753 31.6252C14.3753 32.4181 13.7306 33.0627 12.9378 33.0627C12.1449 33.0627 11.5003 32.4181 11.5003 31.6252C11.5003 30.8323 12.1449 30.1877 12.9378 30.1877ZM10.0627 38.8128C9.26987 38.8128 8.62523 38.1681 8.62523 37.3753C8.62523 36.5824 9.26987 35.9377 10.0627 35.9377C10.8556 35.9377 11.5003 36.5824 11.5003 37.3753C11.5003 38.1681 10.8556 38.8128 10.0627 38.8128ZM15.8128 38.8128C15.0199 38.8128 14.3753 38.1681 14.3753 37.3753C14.3753 36.5824 15.0199 35.9377 15.8128 35.9377C16.6057 35.9377 17.2503 36.5824 17.2503 37.3753C17.2503 38.1681 16.6057 38.8128 15.8128 38.8128ZM21.5628 38.8128C20.77 38.8128 20.1253 38.1681 20.1253 37.3753C20.1253 36.5824 20.77 35.9377 21.5628 35.9377C22.3557 35.9377 23.0004 36.5824 23.0004 37.3753C23.0004 38.1681 22.3557 38.8128 21.5628 38.8128Z" fill="#989998"/>
<path d="M27.3127 12.9376V10.0626C28.1063 10.0626 28.7503 9.4186 28.7503 8.62508C28.7503 7.83155 28.1063 7.18756 27.3127 7.18756V5.75005C27.3127 3.37175 25.3785 1.43751 23.0002 1.43751H17.2502C17.2502 0.643989 16.6062 0 15.8126 0C15.0191 0 14.3751 0.643989 14.3751 1.43751H8.62508C6.24677 1.43751 4.31254 3.37175 4.31254 5.75005V7.18756C3.51901 7.18756 2.87503 7.83155 2.87503 8.62508C2.87503 9.4186 3.51901 10.0626 4.31254 10.0626V12.9376C1.83509 13.5781 0 15.8313 0 18.5057V40.2499C0 43.4205 2.57947 46 5.75005 46H25.8752C29.0458 46 31.6253 43.4205 31.6253 40.2499V18.5057C31.6253 15.8312 29.7902 13.5781 27.3127 12.9376ZM28.7503 40.2504C28.7503 41.8358 27.4607 43.1254 25.8752 43.1254H5.75005C4.1646 43.1254 2.87503 41.8358 2.87503 40.2504V18.5061C2.87503 16.9207 4.1646 15.6311 5.75005 15.6311C6.54357 15.6311 7.18756 14.9871 7.18756 14.1936V10.063H24.4377V14.1936C24.4377 14.9871 25.0817 15.6311 25.8752 15.6311C27.4607 15.6311 28.7503 16.9207 28.7503 18.5061V40.2504Z" fill="#989998"/>
</svg>
