<svg width="41" height="53" viewBox="0 0 41 53" fill="none" xmlns="http://www.w3.org/2000/svg">
<path d="M41 21.2596C41 9.53665 31.8036 0 20.5 0C9.19593 0 0 9.53665 0 21.2596C0 31.8639 7.52451 40.6776 17.3274 42.2636V48.501C11.2239 48.8085 6.6786 49.9774 6.6786 51.3718V53H34.3223V51.3718C34.3223 49.9775 29.7778 48.8078 23.6717 48.501L23.6715 42.2641C33.4748 40.6789 41 31.8639 41 21.2596ZM1.86204 21.2596C1.86204 10.6008 10.2234 1.93064 20.5 1.93064C30.778 1.93064 39.138 10.6013 39.138 21.2596C39.138 31.9175 30.7775 40.5886 20.5 40.5886C10.2234 40.5892 1.86204 31.9175 1.86204 21.2596ZM15.8243 6.01763C18.4501 1.71938 22.3028 2.20381 24.5788 3.2932C26.8553 4.38313 29.5978 8.62089 27.2645 11.0428C25.3515 13.0262 23.1672 13.4286 22.4394 15.7725C21.8333 15.5407 21.1814 15.4091 20.4984 15.4091C19.5527 15.4091 18.6635 15.654 17.8794 16.0818C17.7155 15.916 17.517 15.746 17.2684 15.5754C14.9479 13.9914 14.0747 8.88064 15.8243 6.01763ZM5.80187 26.1084C1.65739 23.3839 2.12506 19.388 3.17491 17.0276C4.22584 14.6671 8.312 11.8209 10.6477 14.2428C12.5607 16.2273 12.9482 18.4929 15.2082 19.2484C14.9852 19.8764 14.8572 20.5525 14.8572 21.26C14.8572 22.2403 15.094 23.1636 15.5064 23.9756C15.3471 24.1456 15.1827 24.3515 15.0176 24.6099C13.4908 27.0153 8.56245 27.9223 5.80187 26.1084ZM25.1748 36.5007C22.5478 40.7997 18.6958 40.3145 16.4189 39.2251C14.1429 38.1346 11.3984 33.8984 13.7332 31.4765C15.6466 29.4925 17.8312 29.0901 18.5597 26.7468C19.1652 26.9786 19.8172 27.109 20.4993 27.109C21.4456 27.109 22.3354 26.8653 23.1178 26.4375C23.2822 26.6033 23.4819 26.7739 23.7299 26.9439C26.0504 28.5283 26.9233 33.6386 25.1748 36.5007ZM35.1953 16.4104C39.3398 19.1349 38.8732 23.1298 37.8222 25.4917C36.7713 27.8515 32.6861 30.6965 30.3494 28.2765C28.437 26.2914 28.0501 24.0264 25.7901 23.2719C26.0131 22.6433 26.1405 21.9672 26.1405 21.2595C26.1405 20.2787 25.9038 19.3564 25.4907 18.5433C25.6511 18.3733 25.8145 18.1674 25.979 17.9091C27.5063 15.5033 32.4361 14.5965 35.1953 16.4104ZM24.4612 21.2589C24.4612 23.5284 22.6882 25.3677 20.4988 25.3677C18.3121 25.3677 16.538 23.5285 16.538 21.2589C16.538 18.9898 18.3121 17.1512 20.4988 17.1512C22.6883 17.1506 24.4612 18.9899 24.4612 21.2589Z" fill="#989998"/>
</svg>
