<svg width="34" height="53" viewBox="0 0 34 53" fill="none" xmlns="http://www.w3.org/2000/svg">
<path d="M28.6237 30.0615V15.5664C28.6237 12.2366 27.3161 9.20919 25.2095 7.014C23.1021 4.81796 20.196 3.45416 17.0009 3.45416C13.8055 3.45416 10.8986 4.81796 8.79239 7.014C6.68495 9.20919 5.37737 12.237 5.37737 15.5664V30.0615H28.6245H28.6237ZM2.06145 30.0615V15.5664C2.06145 11.2861 3.74272 7.39236 6.4493 4.572C9.15589 1.75163 12.8918 0 17.0001 0C21.1094 0 24.8452 1.75153 27.552 4.572C30.2585 7.39236 31.9395 11.2862 31.9395 15.5664V30.0615H32.521C33.3382 30.0615 34 30.752 34 31.6027V51.4588C34 52.3095 33.3377 53 32.521 53H1.47903C0.662637 53 0 52.3095 0 51.4588V31.6027C0 30.752 0.662658 30.0615 1.47903 30.0615H2.06145ZM17.9841 41.4491C18.7945 41.0597 19.357 40.207 19.357 39.2158C19.357 37.8586 18.3009 36.7589 16.9989 36.7589C15.6965 36.7589 14.6412 37.8586 14.6412 39.2158C14.6412 40.207 15.2033 41.0597 16.0135 41.4483V45.4103C16.0135 46.6019 17.9837 46.6019 17.9837 45.4103V41.4491H17.9841Z" fill="#989998"/>
</svg>
